<svg width="300" height="98" xmlns="http://www.w3.org/2000/svg" preserveAspectRatio="xMidYMid meet" version="1.0">
 <metadata>Created by potrace 1.10, written by Peter Selinger 2001-2011</metadata>

 <g>
  <title>Layer 1</title>
  <g id="svg_1" fill="#000000" transform="translate(0 98) scale(0.1 -0.1)">
   <path fill="#ffffff" id="svg_2" d="m1177,911c-99,-27 -239,-98 -338,-172c-48,-35 -95,-69 -105,-76c-18,-11 -18,-12 1,-12c23,-1 61,21 131,75c125,95 384,182 384,128c0,-8 -13,-35 -30,-59c-28,-41 -39,-84 -22,-86c4,0 27,-2 50,-4c69,-5 183,-85 122,-85c-36,0 -257,-47 -354,-75c-91,-26 -200,-75 -226,-101c-9,-9 11,-4 45,12c82,36 224,71 369,91c196,26 632,19 826,-14c66,-11 17,14 -80,41c-113,31 -271,56 -357,56c-47,0 -63,4 -63,14c0,7 -12,16 -27,20c-16,3 -39,15 -53,26l-25,20l48,0c26,0 47,4 47,9c0,4 -12,20 -26,35c-33,32 -89,35 -126,7c-19,-15 -34,-18 -66,-14c-48,6 -53,15 -16,29c21,7 30,20 41,59c25,89 25,90 -32,92c-27,1 -81,-6 -118,-16zm240,-193c-8,-29 6,-52 48,-78c43,-26 37,-40 -16,-40c-36,0 -39,2 -39,29c0,17 -10,38 -25,54l-26,25l23,16c31,22 41,20 35,-6z"/>
   <path fill="#ffffff" id="svg_3" d="m45,808c38,-42 37,-61 -6,-92c-21,-14 -21,-15 9,-30c40,-21 78,-71 98,-130c21,-61 34,-59 22,5c-5,28 -7,58 -4,66c10,24 -5,62 -26,69c-20,6 -19,7 6,31c26,24 26,26 10,44c-17,19 -13,19 155,19c169,0 172,0 181,-22c8,-19 9,-16 7,17l-2,40l-155,7c-85,3 -194,8 -243,11l-87,4l35,-39z"/>
   <path fill="#ffffff" id="svg_4" d="m1702,718c-26,-26 -13,-38 39,-38c48,0 50,-1 43,-22c-6,-20 -5,-21 10,-9c19,16 21,52 4,69c-16,16 -80,16 -96,0z"/>
   <path fill="#ffffff" id="svg_5" d="m387,696c-46,-17 -113,-62 -133,-90c-28,-41 -13,-38 35,7c45,43 98,67 147,67c55,0 130,-33 175,-79c52,-51 69,-96 69,-178c0,-29 5,-53 11,-55c8,-3 1,-32 -20,-89c-17,-47 -31,-88 -31,-92c0,-4 15,-7 33,-7c33,0 33,1 61,87c16,49 31,94 33,101c3,8 -4,12 -21,12c-25,0 -26,1 -26,68c0,124 -66,212 -183,247c-62,18 -100,18 -150,1z"/>
   <path fill="#ffffff" id="svg_6" d="m2050,669c-89,-11 -159,-29 -167,-42c-4,-7 0,-8 13,-3c10,5 84,11 164,13l145,5l-36,-38c-20,-22 -46,-58 -58,-81c-25,-50 -40,-130 -23,-119c7,4 12,16 12,27c0,46 67,136 122,165c44,23 127,18 186,-12c29,-14 52,-32 52,-40c0,-18 -3,-18 -42,6c-67,40 -153,35 -214,-12c-30,-24 -64,-91 -63,-128c0,-22 1,-21 15,10c35,80 108,121 182,100c21,-5 48,-20 60,-33c25,-26 55,-94 47,-107c-3,-5 -1,-11 4,-14c5,-3 -6,-45 -24,-93l-32,-88l24,-3c39,-5 49,3 63,55c19,70 19,70 51,4c26,-57 31,-61 62,-61c33,0 33,1 61,87c16,49 31,94 33,101c4,8 -6,12 -29,12c-32,0 -36,-3 -46,-39c-7,-21 -12,-48 -12,-60c0,-36 -16,-23 -41,32c-12,28 -25,55 -27,60c-2,4 12,7 32,7c36,0 36,0 36,43c-1,50 -21,110 -47,139c-18,21 -18,21 10,14c131,-32 350,-139 355,-174c3,-21 1,-22 -100,-22c-57,0 -97,-4 -90,-8c9,-6 5,-28 -17,-94c-16,-48 -27,-89 -23,-92c11,-12 198,-6 215,7c14,10 47,85 47,106c0,3 -29,6 -65,6c-36,0 -65,-3 -65,-6c0,-12 37,-39 44,-32c5,5 7,-1 4,-12c-3,-17 -12,-21 -56,-23l-52,-3l16,41c14,36 15,43 3,51c-9,5 25,9 86,11l100,3l9,36c14,56 1,85 -47,113c-68,39 -211,92 -377,139c-141,41 -167,45 -295,50c-77,2 -169,1 -205,-4zm486,-139c30,-84 30,-91 -6,-125c-20,-19 -30,-39 -31,-59c-1,-21 -4,-14 -10,22c-5,29 -18,70 -29,91l-19,39l25,17c25,16 26,25 9,68c-6,16 -4,18 15,15c19,-2 28,-16 46,-68z"/>
   <path fill="#ffffff" id="svg_7" d="m370,615c-46,-21 -78,-51 -101,-97c-21,-41 -23,-48 -11,-48c4,0 13,14 21,31c25,58 114,98 186,85c39,-8 99,-55 119,-95c23,-44 29,-100 12,-107c-8,-3 -22,-35 -32,-70l-17,-65l-28,63l-28,63l-53,3c-36,2 -48,-1 -38,-7c12,-8 10,-20 -12,-83c-14,-40 -29,-81 -33,-90c-6,-15 -1,-18 29,-18c35,0 36,1 53,60c10,33 20,60 23,60c3,-1 17,-28 32,-61c26,-57 29,-60 59,-57c29,3 33,8 61,83c43,117 46,183 13,251c-35,72 -86,107 -163,111c-37,2 -70,-2 -92,-12z"/>
   <path fill="#ffffff" id="svg_8" d="m109,371c11,-7 9,-22 -12,-83c-34,-102 -29,-108 79,-108c47,0 94,4 104,10c14,7 80,160 80,186c0,2 -15,4 -33,4c-32,0 -34,-2 -58,-75l-24,-75l-59,0c-55,0 -58,1 -44,18c8,9 24,43 36,75l21,57l-52,0c-33,0 -47,-3 -38,-9z"/>
   <path fill="#ffffff" id="svg_9" d="m817,362c2,-10 -9,-55 -26,-100l-30,-82l33,0c29,0 36,5 45,30c10,29 11,30 79,30c79,0 92,9 113,78c17,58 9,62 -118,62c-92,0 -101,-2 -96,-18zm153,-38c0,-3 -5,-14 -10,-25c-8,-14 -21,-19 -53,-19c-38,0 -42,2 -42,25c0,23 3,25 53,25c28,0 52,-3 52,-6z"/>
   <path fill="#ffffff" id="svg_10" d="m1077,369c8,-8 3,-34 -18,-97c-16,-47 -29,-87 -29,-89c0,-7 206,-2 217,5c11,7 53,95 53,110c0,4 -29,7 -65,7c-36,0 -65,-3 -65,-6c0,-12 37,-39 44,-32c5,5 7,-1 4,-12c-3,-16 -12,-21 -55,-23l-52,-3l14,42c12,34 13,44 3,51c-7,4 30,8 83,8c92,0 96,1 107,25l12,25l-132,0c-96,0 -129,-3 -121,-11z"/>
   <path fill="#ffffff" id="svg_11" d="m1480,371c12,-8 10,-20 -12,-83c-14,-40 -29,-81 -33,-90c-6,-15 -1,-18 28,-18c32,0 37,4 47,36c15,44 39,42 60,-3c12,-26 21,-33 46,-33c42,0 47,8 23,41l-20,29l25,0c32,0 58,38 60,88l1,37l-120,3c-78,1 -115,-1 -105,-7zm158,-58c-2,-14 -15,-19 -49,-21c-40,-3 -47,0 -52,18c-5,18 -1,20 50,20c46,0 54,-3 51,-17z"/>
   <path fill="#ffffff" id="svg_12" d="m1757,369c9,-9 4,-32 -18,-92c-16,-45 -29,-84 -29,-89c0,-4 15,-8 34,-8c28,0 35,4 38,23c3,19 10,22 56,25c50,3 53,2 43,-17c-16,-29 -14,-31 22,-31c33,0 33,1 61,88c16,48 31,93 33,100c4,9 -25,12 -123,12c-96,0 -125,-3 -117,-11zm163,-43c0,-3 -4,-16 -10,-30c-8,-23 -15,-26 -60,-26c-48,0 -50,1 -40,20c6,11 8,25 5,30c-4,6 16,10 49,10c31,0 56,-2 56,-4z"/>
   <path fill="#ffffff" id="svg_13" d="m2037,372c10,-6 7,-26 -13,-85c-14,-43 -23,-84 -20,-92c4,-12 27,-15 109,-15c101,0 104,1 115,25l12,25l-85,0c-47,0 -85,2 -85,4c0,2 7,19 15,38c10,26 11,38 3,46c-9,9 11,12 83,12c92,0 96,1 107,25l12,25l-133,0c-72,0 -126,-4 -120,-8z"/>
   <path fill="#ffffff" id="svg_14" d="m2318,371c11,-6 7,-25 -17,-95c-17,-48 -31,-89 -31,-92c0,-2 15,-4 33,-4c32,0 33,1 62,88c17,48 31,93 33,100c2,8 -11,12 -45,12c-30,0 -43,-3 -35,-9z"/>
   <path fill="#ffffff" id="svg_15" d="m2376,126c3,-9 12,-12 21,-9c13,5 15,1 10,-19c-4,-15 -10,-33 -13,-42c-4,-11 0,-16 14,-16c16,0 22,9 27,40c5,30 11,40 26,40c10,0 19,5 19,10c0,6 -25,10 -55,10c-43,0 -53,-3 -49,-14z"/>
   <path fill="#ffffff" id="svg_16" d="m2494,131c3,-5 -1,-25 -9,-45c-13,-31 -13,-37 -1,-42c25,-10 89,1 94,15c3,10 -3,12 -27,9c-18,-3 -34,-1 -37,4c-3,4 9,8 25,8c17,0 31,5 31,10c0,6 -11,10 -25,10c-14,0 -25,5 -25,11c0,6 15,9 37,7c22,-2 38,2 41,10c2,8 -12,12 -53,12c-31,0 -54,-4 -51,-9z"/>
   <path fill="#ffffff" id="svg_17" d="m2616,113c-3,-16 -8,-38 -12,-50c-5,-17 -2,-23 9,-23c8,0 17,7 21,15c7,20 46,20 46,0c0,-33 29,-12 44,32c9,26 16,48 16,50c0,2 -26,3 -59,3c-56,0 -59,-1 -65,-27zm82,-10c-2,-10 -13,-19 -26,-21c-17,-3 -22,2 -22,17c0,16 6,21 26,21c19,0 25,-5 22,-17z"/>
   <path fill="#ffffff" id="svg_18" d="m2749,90c-14,-47 -14,-50 2,-50c9,0 20,10 24,23c6,19 8,19 12,4c5,-20 23,-22 42,-4c11,10 13,9 8,-5c-5,-13 -1,-18 12,-18c12,0 22,12 30,38c7,20 15,43 17,50c11,25 -32,11 -57,-20l-27,-32l-7,32c-11,50 -37,41 -56,-18z"/>
  </g>
 </g>
</svg>